:SAMPLES-PER-SECOND 30
:FULLY-SPECIFIED
:DEGREES
507
root  2.23125 38.5182 -30.1641 -2.66911 -13.474 2.81811
RightUpLeg  -24.6301 0.118862 -5.39619
RightLeg  42.9574 -5.92437 -6.19192
RightFoot  -7.86709 -0.396455 11.3139
RightToes  -5.82094e-011 -1.98785e-016 -5.10186e-018
Spine  13.0143 -2.03773 -19.7227
Spine1  1.90008 -9.43517 20.096
HEad  -4.21519 22.0588 -11.3494
LeftShoulder1  2.5113 -5.28005 -22.277
LeftArm  -18.4403 -8.12417 -50.1417
LeftForeArm  75.8491 -67.1179 -18.481
LeftHand  -0.190997 1.98278 6.20728
RightShoulder  2.18545 3.04378 27.4252
RightArm  -2.03138 -26.0621 28.4375
RightForeArm  19.9521 9.91298 10.274
RightHand  -1.78466 6.56589 -17.5107
LeftUpLeg  6.4419 9.73656 -4.18519
LeftLeg  18.1367 11.1117 4.26949
LeftFoot  -21.527 -0.231139 -4.03388
LeftToes  -8.4584e-011 5.90861e-011 8.40072e-012
508
root  2.10324 38.4961 -28.7274 -2.46027 -11.87 1.92218
RightUpLeg  -25.6751 -2.24225 -3.37594
RightLeg  33.1002 -5.37979 -4.02494
RightFoot  -6.43401 -0.561218 11.8595
RightToes  -5.82094e-011 -1.98785e-016 -5.10186e-018
Spine  13.2672 -2.92651 -19.9123
Spine1  1.46117 -10.4275 21.9118
HEad  -4.9506 22.5378 -11.7747
LeftShoulder1  2.67029 -6.07514 -21.5352
LeftArm  -18.9002 -12.3026 -49.7574
LeftForeArm  72.247 -65.1753 -16.8993
LeftHand  -0.30099 0.796496 7.62316
RightShoulder  2.06844 2.73563 27.1956
RightArm  -6.23848 -28.573 27.2691
RightForeArm  25.2495 7.05747 11.0251
RightHand  -1.61077 6.18549 -16.3763
LeftUpLeg  9.72111 8.34675 -3.13496
LeftLeg  16.3003 10.7039 3.49727
LeftFoot  -21.5757 -0.319483 -5.01219
LeftToes  -8.4584e-011 5.90861e-011 8.40072e-012
509
root  1.91918 38.4863 -27.1681 -2.01288 -10.8132 1.15853
RightUpLeg  -25.6274 -4.30118 -1.20373
RightLeg  21.4047 -3.87127 -1.95207
RightFoot  -3.23696 -1.00292 13.874
RightToes  -5.82094e-011 -1.98785e-016 -5.10186e-018
Spine  12.9371 -3.67776 -19.8373
Spine1  0.960194 -11.0214 23.1184
HEad  -5.46674 23.1881 -12.1711
LeftShoulder1  2.75277 -6.71348 -20.5241
LeftArm  -18.7713 -15.3872 -50.2535
LeftForeArm  67.8336 -61.7932 -14.5679
LeftHand  -0.348419 0.865983 8.90676
RightShoulder  1.977 2.49274 27.012
RightArm  -8.56008 -31.194 26.0958
RightForeArm  28.9483 4.89213 11.23
RightHand  -1.411 6.15926 -14.372
LeftUpLeg  12.9062 7.32245 -2.10534
LeftLeg  14.3454 10.3414 2.7159
LeftFoot  -20.858 -0.383499 -6.11279
LeftToes  -8.4584e-011 5.90861e-011 8.40072e-012
510
root  1.70228 38.4814 -25.5725 -1.61798 -9.56468 0.431823
RightUpLeg  -25.0219 -6.16569 0.624544
RightLeg  11.3425 -2.25011 -0.522
RightFoot  0.204175 -1.35847 13.3787
RightToes  -5.82094e-011 -1.98785e-016 -5.10186e-018
Spine  12.4049 -4.44237 -19.4874
Spine1  0.739821 -11.7372 24.2812
HEad  -5.47003 23.4186 -12.5288
LeftShoulder1  2.7408 -6.84109 -20.0554
LeftArm  -17.7137 -18.147 -51.5814
LeftForeArm  65.173 -56.9987 -11.8082
LeftHand  -0.39864 0.678036 9.83841
RightShoulder  1.94396 2.46007 26.6192
RightArm  -9.57161 -33.7377 24.96
RightForeArm  31.2326 3.51816 11.0738
RightHand  -1.0151 5.48641 -11.1421
LeftUpLeg  15.9122 7.01693 -0.63483
LeftLeg  12.8323 8.85171 1.84544
LeftFoot  -19.6567 -0.449545 -7.79811
LeftToes  -8.4584e-011 5.90861e-011 8.40072e-012
511
root  1.44348 38.4718 -23.9638 -1.88508 -8.21322 -0.408218
RightUpLeg  -24.0655 -5.70471 1.35832
RightLeg  7.28869 -4.42626 -0.24362
RightFoot  -0.247672 -1.20006 12.2949
RightToes  -5.82094e-011 -1.98785e-016 -5.10186e-018
Spine  12.1925 -4.98687 -18.711
Spine1  1.14416 -12.5058 25.1002
HEad  -5.49313 23.458 -12.9023
LeftShoulder1  2.86604 -7.46432 -19.6611
LeftArm  -16.0153 -19.2637 -52.6073
LeftForeArm  63.4277 -52.2974 -9.66712
LeftHand  -0.354233 0.872433 9.10256
RightShoulder  1.79989 2.09102 26.1856
RightArm  -10.3402 -35.5844 24.5511
RightForeArm  32.2754 2.19056 10.7546
RightHand  -0.946882 4.94772 -10.9009
LeftUpLeg  19.3064 6.91382 1.32466
LeftLeg  11.9087 6.73359 1.18745
LeftFoot  -18.0062 -0.442142 -9.42669
LeftToes  -8.4584e-011 5.90861e-011 8.40072e-012
512
root  1.10901 38.3444 -22.2636 -2.51292 -6.65701 -1.34075
RightUpLeg  -23.1721 -4.98705 2.25318
RightLeg  9.64348 -7.3264 -1.36647
RightFoot  1.29611 -1.02395 9.39666
RightToes  -5.82094e-011 -1.98785e-016 -5.10186e-018
Spine  12.0534 -5.4901 -17.969
Spine1  1.5585 -13.2636 25.8636
HEad  -5.68081 23.3638 -13.5604
LeftShoulder1  2.90747 -7.67703 -19.5252
LeftArm  -13.2362 -18.4709 -53.8793
LeftForeArm  63.8666 -48.3097 -8.1862
LeftHand  -0.308964 0.515384 7.36936
RightShoulder  1.69137 1.79171 25.9518
RightArm  -10.0986 -36.7581 23.7675
RightForeArm  33.2352 1.38143 10.6551
RightHand  -0.873814 5.01107 -10.0246
LeftUpLeg  21.8969 7.93037 4.29714
LeftLeg  13.6629 3.16994 0.804548
LeftFoot  -16.4248 -0.420849 -11.6289
LeftToes  -8.4584e-011 5.90861e-011 8.40072e-012
513
root  0.742638 38.0961 -20.5091 -3.75117 -4.50513 -2.23055
RightUpLeg  -21.834 -4.88151 2.91081
RightLeg  15.0773 -9.62358 -3.11438
RightFoot  3.73672 -0.804255 6.19962
RightToes  -5.82094e-011 -1.98785e-016 -5.10186e-018
Spine  12.4611 -6.01222 -17.0595
Spine1  1.72287 -13.9479 26.5056
HEad  -6.05365 22.976 -14.6686
LeftShoulder1  2.96898 -7.71685 -20.0204
LeftArm  -9.46054 -17.253 -55.4434
LeftForeArm  63.8018 -42.5472 -6.31856
LeftHand  -0.288069 0.873516 7.37229
RightShoulder  1.66846 1.74121 25.8173
RightArm  -10.1291 -37.9186 23.5839
RightForeArm  32.8779 1.39067 10.6161
RightHand  -0.821156 4.36155 -10.0272
LeftUpLeg  23.074 8.13893 7.47038
LeftLeg  18.9989 0.343514 0.504699
LeftFoot  -13.9183 -0.225452 -14.2633
LeftToes  -8.4584e-011 5.90861e-011 8.40072e-012
514
root  0.432952 37.9175 -18.8858 -4.84647 -3.04608 -3.58972
RightUpLeg  -20.8493 -5.78568 4.18735
RightLeg  20.7947 -8.94928 -3.94097
RightFoot  2.028 -0.406791 3.57688
RightToes  -5.82094e-011 -1.98785e-016 -5.10186e-018
Spine  13.6057 -6.12004 -14.4429
Spine1  1.12356 -13.6019 26.4194
HEad  -5.91122 21.7011 -15.347
LeftShoulder1  3.05435 -7.46093 -21.5053
LeftArm  -4.85324 -14.0885 -56.8609
LeftForeArm  63.452 -38.1334 -5.17124
LeftHand  -0.261946 0.824355 6.63259
RightShoulder  1.68288 1.77456 25.8872
RightArm  -11.1589 -37.8654 24.1365
RightForeArm  33.2568 0.703596 10.3211
RightHand  -0.88715 4.63393 -10.5409
LeftUpLeg  21.0333 6.67737 9.70578
LeftLeg  28.8627 1.60189 1.34498
LeftFoot  -8.01106 0.515371 -15.9685
LeftToes  -8.4584e-011 5.90861e-011 8.40072e-012
515
root  0.199483 37.8309 -17.3796 -5.37274 -2.4623 -5.17532
RightUpLeg  -19.4766 -6.72392 5.86045
RightLeg  24.4487 -8.26986 -4.31484
RightFoot  -1.79531 -0.27598 3.19765
RightToes  -5.82094e-011 -1.98785e-016 -5.10186e-018
Spine  13.0707 -6.29767 -10.2691
Spine1  2.47926 -12.8629 24.6309
HEad  -6.33309 20.2906 -15.6003
LeftShoulder1  3.1697 -7.41629 -22.7473
LeftArm  -0.968029 -10.5137 -58.0274
LeftForeArm  61.5929 -32.6832 -3.94551
LeftHand  -0.255766 1.04909 6.7972
RightShoulder  1.88676 2.31755 26.4335
RightArm  -12.6218 -36.423 25.9079
RightForeArm  32.4361 -0.145579 10.0757
RightHand  -0.947709 4.34369 -11.5147
LeftUpLeg  15.6286 5.00308 10.9462
LeftLeg  41.7226 4.33602 4.71131
LeftFoot  2.42303 1.39594 -12.5387
LeftToes  -8.4584e-011 5.90861e-011 8.40072e-012
516
root  0.0321075 37.7741 -15.9905 -5.402 -1.11247 -7.15426
RightUpLeg  -18.0751 -7.62815 7.67972
RightLeg  26.7745 -8.60559 -4.91302
RightFoot  -5.3268 -0.238861 3.87401
RightToes  -5.82094e-011 -1.98785e-016 -5.10186e-018
Spine  13.0083 -6.53823 -4.94768
Spine1  2.96535 -11.6313 22.5909
HEad  -6.10633 17.7978 -14.6212
LeftShoulder1  3.15669 -7.08101 -23.6043
LeftArm  2.08232 -6.47006 -59.3967
LeftForeArm  59.9282 -26.7492 -2.70773
LeftHand  -0.242921 0.727897 5.98652
RightShoulder  2.09244 2.78616 27.3098
RightArm  -13.8403 -34.0713 28.3063
RightForeArm  32.8095 -0.801373 9.83226
RightHand  -1.16874 4.70481 -13.6803
LeftUpLeg  7.57664 2.03241 11.4708
LeftLeg  54.3537 5.98152 9.14077
LeftFoot  13.113 1.25056 -5.84775
LeftToes  -8.4584e-011 5.90861e-011 8.40072e-012
517
root  -0.174739 37.9939 -14.3776 -5.20701 0.236209 -7.7943
RightUpLeg  -15.3937 -8.82405 8.13964
RightLeg  26.7822 -8.56123 -4.89326
RightFoot  -8.29672 -0.180874 4.63866
RightToes  -5.82094e-011 -1.98785e-016 -5.10186e-018
Spine  11.589 -6.00342 -1.53173
Spine1  3.2022 -9.99027 20.2668
HEad  -5.56304 14.9805 -13.4422
LeftShoulder1  3.0203 -6.15653 -25.0971
LeftArm  0.765151 -2.08419 -59.619
LeftForeArm  62.6674 -20.5125 -2.75032
LeftHand  -0.167773 1.37318 4.72828
RightShoulder  2.41364 3.50067 28.5322
RightArm  -13.5907 -30.6181 29.9162
RightForeArm  33.1363 -1.14159 9.9781
RightHand  -1.23648 4.80894 -14.2894
LeftUpLeg  0.298386 -0.000482693 11.0341
LeftLeg  61.4765 3.12907 6.81017
LeftFoot  10.8368 0.8273 -4.54516
LeftToes  -8.4584e-011 5.90861e-011 8.40072e-012
518
root  -0.397818 38.2785 -12.6885 -5.39038 0.454228 -7.24559
RightUpLeg  -11.6967 -9.47569 7.43247
RightLeg  25.8643 -8.12469 -4.49085
RightFoot  -10.9217 -0.0922694 5.06568
RightToes  -5.82094e-011 -1.98785e-016 -5.10186e-018
Spine  10.0382 -4.45129 0.63772
Spine1  3.73678 -7.58628 17.8078
HEad  -4.52038 11.5182 -12.0581
LeftShoulder1  2.89734 -5.43305 -26.3092
LeftArm  -12.9639 2.89829 -57.5131
LeftForeArm  76.0617 -14.3238 -5.94897
LeftHand  -0.105223 0.457781 2.49862
RightShoulder  2.86603 4.58849 29.505
RightArm  -13.2933 -26.4509 31.2345
RightForeArm  33.6334 -1.53955 10.0029
RightHand  -1.33598 4.87515 -15.3157
LeftUpLeg  -5.59009 -0.380548 9.60036
LeftLeg  63.7103 0.980783 2.91
LeftFoot  4.6889 0.528762 -3.95424
LeftToes  -8.4584e-011 5.90861e-011 8.40072e-012
519
root  -0.595018 38.514 -10.9462 -5.52847 -0.455204 -6.61583
RightUpLeg  -7.7281 -9.37021 6.66915
RightLeg  24.4097 -7.34745 -3.84946
RightFoot  -12.9963 -0.00848732 5.56483
RightToes  -5.82094e-011 -1.98785e-016 -5.10186e-018
Spine  8.44259 -2.62491 4.36415
Spine1  4.13549 -4.22318 12.9437
HEad  -3.27051 7.77013 -9.80244
LeftShoulder1  2.38867 -3.8161 -26.4983
LeftArm  -21.1508 8.58033 -53.6331
LeftForeArm  82.9005 -11.708 -6.92736
LeftHand  0.0956194 -0.912174 -1.73769
RightShoulder  3.3221 5.72509 30.0993
RightArm  -12.949 -22.0331 32.4445
RightForeArm  33.651 -0.838086 10.0913
RightHand  -1.39182 5.01461 -15.7232
LeftUpLeg  -10.4762 0.856567 8.24931
LeftLeg  62.1698 1.46865 3.61741
LeftFoot  1.81645 0.38226 -3.48216
LeftToes  -8.4584e-011 5.90861e-011 8.40072e-012
520
root  -0.764299 38.69 -9.15089 -5.48797 -1.90979 -6.07961
RightUpLeg  -3.63433 -8.76164 5.9834
RightLeg  22.4056 -6.61435 -3.20418
RightFoot  -14.7708 0.0700771 5.68058
RightToes  -5.82094e-011 -1.98785e-016 -5.10186e-018
Spine  7.03717 -0.861922 9.52133
Spine1  4.06487 -0.402731 5.89628
HEad  -1.98145 4.62758 -7.32673
LeftShoulder1  1.6846 -1.78245 -25.7153
LeftArm  -18.688 14.3107 -47.9898
LeftForeArm  77.2635 -13.9354 -6.13425
LeftHand  0.540752 -2.17283 -8.09262
RightShoulder  3.61463 6.57005 29.9638
RightArm  -11.848 -17.2547 33.4086
RightForeArm  34.0231 1.42067 10.4573
RightHand  -1.5309 5.99245 -15.8358
LeftUpLeg  -14.7452 2.27274 6.96633
LeftLeg  57.8333 3.06433 5.80444
LeftFoot  -2.42125 0.350606 -4.25039
LeftToes  -8.4584e-011 5.90861e-011 8.40072e-012
